dataset
version=1
nRows=14
nColumns=39
inDegrees=no
endheader
time	sternoclavicular_r2	sternoclavicular_r3	unrotscap_r3	unrotscap_r2	acromioclavicular_r2	acromioclavicular_r3	acromioclavicular_r1	unrothum_r1	unrothum_r3	unrothum_r2	elv_angle	shoulder_elv	shoulder1_r2	shoulder_rot	elbow_flexion	pro_sup	deviation	flexion	cmc_abduction	cmc_flexion	mp_flexion	ip_flexion	mcp2_flexion	mcp2_abduction	pm2_flexion	md2_flexion	mcp3_flexion	mcp3_abduction	pm3_flexion	md3_flexion	mcp4_flexion	mcp4_abduction	pm4_flexion	md4_flexion	mcp5_flexion	mcp5_abduction	pm5_flexion	md5_flexion
4.560000	-0.035494	-0.550997	0.467678	0.179086	0.103799	0.379800	-0.295962	0.191072	-0.123951	0.099623	0.081698	0.027437	0.146525	0.146525	1.340206	4.429850	0.000000	0.000000	0.000000	0.000000	0.000000	0.000000	0.000000	0.000000	0.000000	0.000000	0.000000	0.000000	0.000000	0.000000	0.000000	0.000000	0.000000	0.000000	0.000000	0.000000	0.000000	0.000000
4.565000	-0.035691	-0.550816	0.468846	0.178493	0.103284	0.379322	-0.297567	0.191017	-0.125509	0.099326	0.080946	0.027437	0.146525	0.146525	1.340530	4.429870	0.000000	0.000000	0.000000	0.000000	0.000000	0.000000	0.000000	0.000000	0.000000	0.000000	0.000000	0.000000	0.000000	0.000000	0.000000	0.000000	0.000000	0.000000	0.000000	0.000000	0.000000	0.000000
4.570000	-0.035895	-0.550610	0.469951	0.177918	0.102796	0.378813	-0.299114	0.190904	-0.127027	0.099058	0.080223	0.027437	0.146525	0.146525	1.340783	4.429885	0.000000	0.000000	0.000000	0.000000	0.000000	0.000000	0.000000	0.000000	0.000000	0.000000	0.000000	0.000000	0.000000	0.000000	0.000000	0.000000	0.000000	0.000000	0.000000	0.000000	0.000000	0.000000
4.575000	-0.036106	-0.550380	0.470988	0.177361	0.102333	0.378269	-0.300601	0.190733	-0.128503	0.098822	0.079530	0.027437	0.146525	0.146525	1.340970	4.429897	0.000000	0.000000	0.000000	0.000000	0.000000	0.000000	0.000000	0.000000	0.000000	0.000000	0.000000	0.000000	0.000000	0.000000	0.000000	0.000000	0.000000	0.000000	0.000000	0.000000	0.000000	0.000000
4.580000	-0.036323	-0.550125	0.471955	0.176822	0.101895	0.377691	-0.302026	0.190501	-0.129933	0.098615	0.078867	0.027437	0.146525	0.146525	1.341091	4.429905	0.000000	0.000000	0.000000	0.000000	0.000000	0.000000	0.000000	0.000000	0.000000	0.000000	0.000000	0.000000	0.000000	0.000000	0.000000	0.000000	0.000000	0.000000	0.000000	0.000000	0.000000	0.000000
4.585000	-0.036546	-0.549844	0.472851	0.176300	0.101482	0.377076	-0.303389	0.190207	-0.131317	0.098440	0.078235	0.027437	0.146525	0.146525	1.341150	4.429909	0.000000	0.000000	0.000000	0.000000	0.000000	0.000000	0.000000	0.000000	0.000000	0.000000	0.000000	0.000000	0.000000	0.000000	0.000000	0.000000	0.000000	0.000000	0.000000	0.000000	0.000000	0.000000
4.590000	-0.036774	-0.549536	0.473674	0.175795	0.101094	0.376424	-0.304686	0.189850	-0.132651	0.098295	0.077633	0.027437	0.146525	0.146525	1.341150	4.429910	0.000000	0.000000	0.000000	0.000000	0.000000	0.000000	0.000000	0.000000	0.000000	0.000000	0.000000	0.000000	0.000000	0.000000	0.000000	0.000000	0.000000	0.000000	0.000000	0.000000	0.000000	0.000000
4.595000	-0.037006	-0.549202	0.474420	0.175305	0.100730	0.375734	-0.305917	0.189428	-0.133933	0.098181	0.077064	0.027437	0.146525	0.146525	1.341094	4.429908	0.000000	0.000000	0.000000	0.000000	0.000000	0.000000	0.000000	0.000000	0.000000	0.000000	0.000000	0.000000	0.000000	0.000000	0.000000	0.000000	0.000000	0.000000	0.000000	0.000000	0.000000	0.000000
4.600000	-0.037243	-0.548839	0.475089	0.174830	0.100390	0.375004	-0.307080	0.188940	-0.135162	0.098097	0.076526	0.027437	0.146525	0.146525	1.340985	4.429902	0.000000	0.000000	0.000000	0.000000	0.000000	0.000000	0.000000	0.000000	0.000000	0.000000	0.000000	0.000000	0.000000	0.000000	0.000000	0.000000	0.000000	0.000000	0.000000	0.000000	0.000000	0.000000
4.605000	-0.037484	-0.548449	0.475680	0.174370	0.100073	0.374234	-0.308175	0.188386	-0.136334	0.098044	0.076021	0.027437	0.146525	0.146525	1.340825	4.429893	0.000000	0.000000	0.000000	0.000000	0.000000	0.000000	0.000000	0.000000	0.000000	0.000000	0.000000	0.000000	0.000000	0.000000	0.000000	0.000000	0.000000	0.000000	0.000000	0.000000	0.000000	0.000000
4.610000	-0.037729	-0.548031	0.476190	0.173923	0.099778	0.373424	-0.309200	0.187764	-0.137449	0.098022	0.075548	0.027437	0.146525	0.146525	1.340619	4.429881	0.000000	0.000000	0.000000	0.000000	0.000000	0.000000	0.000000	0.000000	0.000000	0.000000	0.000000	0.000000	0.000000	0.000000	0.000000	0.000000	0.000000	0.000000	0.000000	0.000000	0.000000	0.000000
4.615000	-0.037976	-0.547584	0.476618	0.173489	0.099506	0.372571	-0.310154	0.187074	-0.138504	0.098030	0.075108	0.027437	0.146525	0.146525	1.340368	4.429867	0.000000	0.000000	0.000000	0.000000	0.000000	0.000000	0.000000	0.000000	0.000000	0.000000	0.000000	0.000000	0.000000	0.000000	0.000000	0.000000	0.000000	0.000000	0.000000	0.000000	0.000000	0.000000
4.620000	-0.038226	-0.547109	0.476964	0.173068	0.099254	0.371677	-0.311037	0.186315	-0.139499	0.098068	0.074702	0.027437	0.146525	0.146525	1.340077	4.429850	0.000000	0.000000	0.000000	0.000000	0.000000	0.000000	0.000000	0.000000	0.000000	0.000000	0.000000	0.000000	0.000000	0.000000	0.000000	0.000000	0.000000	0.000000	0.000000	0.000000	0.000000	0.000000
4.625000	-0.038477	-0.546606	0.477226	0.172658	0.099024	0.370739	-0.311848	0.185488	-0.140431	0.098136	0.074328	0.027437	0.146525	0.146525	1.339749	4.429830	0.000000	0.000000	0.000000	0.000000	0.000000	0.000000	0.000000	0.000000	0.000000	0.000000	0.000000	0.000000	0.000000	0.000000	0.000000	0.000000	0.000000	0.000000	0.000000	0.000000	0.000000	0.000000
